<mxfile host="65bd71144e" scale="5" border="0">
    <diagram id="FgpiK9OE_3OYkIBHCV0x" name="Page-1">
        <mxGraphModel dx="1920" dy="461" grid="1" gridSize="10" guides="1" tooltips="1" connect="1" arrows="1" fold="1" page="1" pageScale="1" pageWidth="850" pageHeight="1100" background="#ffffff" math="0" shadow="0">
            <root>
                <mxCell id="0"/>
                <mxCell id="1" parent="0"/>
                <mxCell id="117" value="" style="shape=curlyBracket;whiteSpace=wrap;html=1;rounded=1;fillColor=#FF0000;rotation=90;fontFamily=Garamond;fontSize=36;strokeWidth=2;" parent="1" vertex="1">
                    <mxGeometry x="368.03000000000003" y="146.93" width="20" height="202.88" as="geometry"/>
                </mxCell>
                <mxCell id="690" value="Hidden Layer" style="text;align=center;verticalAlign=middle;rounded=0;fontFamily=Garamond;html=1;whiteSpace=wrap;fontSize=36;rotation=0;strokeWidth=2;" parent="1" vertex="1">
                    <mxGeometry x="299.9999999999999" y="133.93" width="156.07" height="97.12" as="geometry"/>
                </mxCell>
                <mxCell id="692" value="" style="shape=curlyBracket;whiteSpace=wrap;html=1;rounded=1;fillColor=#FF0000;rotation=90;fontFamily=Garamond;fontSize=36;strokeWidth=2;" parent="1" vertex="1">
                    <mxGeometry x="150" y="155.87" width="20" height="185" as="geometry"/>
                </mxCell>
                <mxCell id="758" value="" style="edgeStyle=none;html=1;strokeWidth=3;" edge="1" parent="1" source="695" target="699">
                    <mxGeometry relative="1" as="geometry"/>
                </mxCell>
                <mxCell id="695" value="LSTM" style="text;align=center;verticalAlign=middle;rounded=0;fontFamily=Garamond;html=1;whiteSpace=wrap;fontSize=36;rotation=0;strokeWidth=2;fillColor=#f5f5f5;fontColor=#333333;strokeColor=#666666;" parent="1" vertex="1">
                    <mxGeometry x="300" y="280" width="156.07" height="140" as="geometry"/>
                </mxCell>
                <mxCell id="698" value="Input Layer" style="text;align=center;verticalAlign=middle;rounded=0;fontFamily=Garamond;html=1;whiteSpace=wrap;fontSize=36;rotation=0;strokeWidth=2;" parent="1" vertex="1">
                    <mxGeometry x="81.96999999999989" y="130" width="156.07" height="97.12" as="geometry"/>
                </mxCell>
                <mxCell id="699" value="Linear Layer" style="text;align=center;verticalAlign=middle;rounded=0;fontFamily=Garamond;html=1;whiteSpace=wrap;fontSize=36;rotation=0;strokeWidth=2;fillColor=#f5f5f5;fontColor=#333333;strokeColor=#666666;" parent="1" vertex="1">
                    <mxGeometry x="524.0699999999999" y="280" width="156.07" height="140" as="geometry"/>
                </mxCell>
                <mxCell id="700" value="" style="shape=curlyBracket;whiteSpace=wrap;html=1;rounded=1;fillColor=#FF0000;rotation=90;fontFamily=Garamond;fontSize=36;strokeWidth=2;" parent="1" vertex="1">
                    <mxGeometry x="592.1" y="155.87" width="20" height="185" as="geometry"/>
                </mxCell>
                <mxCell id="701" value="Output Layer" style="text;align=center;verticalAlign=middle;rounded=0;fontFamily=Garamond;html=1;whiteSpace=wrap;fontSize=36;rotation=0;strokeWidth=2;" parent="1" vertex="1">
                    <mxGeometry x="524.0699999999999" y="133.93" width="156.07" height="97.12" as="geometry"/>
                </mxCell>
                <mxCell id="704" value="" style="curved=1;endArrow=none;html=1;endFill=0;startArrow=none;entryX=0;entryY=0;entryDx=7.989;entryDy=7.904000000000001;fontFamily=Garamond;fontSize=36;strokeWidth=2;entryPerimeter=0;dashed=1;exitX=0.471;exitY=0.536;exitDx=0;exitDy=0;exitPerimeter=0;" parent="1" source="732" target="737" edge="1">
                    <mxGeometry width="50" height="50" relative="1" as="geometry">
                        <mxPoint x="641" y="566" as="sourcePoint"/>
                        <mxPoint x="706.162296934087" y="550.9227030659134" as="targetPoint"/>
                        <Array as="points"/>
                    </mxGeometry>
                </mxCell>
                <mxCell id="705" value="" style="curved=1;endArrow=none;html=1;endFill=0;startArrow=none;entryX=0.514;entryY=0.5;entryDx=0;entryDy=0;fontFamily=Garamond;fontSize=36;strokeWidth=2;entryPerimeter=0;dashed=1;" parent="1" target="732" edge="1">
                    <mxGeometry width="50" height="50" relative="1" as="geometry">
                        <mxPoint x="631" y="556" as="sourcePoint"/>
                        <mxPoint x="637.4644660940671" y="569.535533905933" as="targetPoint"/>
                        <Array as="points"/>
                    </mxGeometry>
                </mxCell>
                <mxCell id="706" value="" style="endArrow=classic;html=1;fontFamily=Garamond;fontSize=36;strokeWidth=2;" parent="1" edge="1">
                    <mxGeometry width="50" height="50" relative="1" as="geometry">
                        <mxPoint x="10" y="721" as="sourcePoint"/>
                        <mxPoint x="839" y="721" as="targetPoint"/>
                    </mxGeometry>
                </mxCell>
                <mxCell id="707" value="" style="endArrow=classic;html=1;fontFamily=Garamond;fontSize=36;strokeWidth=2;startArrow=none;" parent="1" edge="1">
                    <mxGeometry width="50" height="50" relative="1" as="geometry">
                        <mxPoint x="10" y="720" as="sourcePoint"/>
                        <mxPoint x="10" y="366" as="targetPoint"/>
                    </mxGeometry>
                </mxCell>
                <mxCell id="709" value="" style="curved=1;endArrow=none;html=1;endFill=0;fontFamily=Garamond;fontSize=36;strokeWidth=2;" parent="1" edge="1">
                    <mxGeometry width="50" height="50" relative="1" as="geometry">
                        <mxPoint x="10" y="720" as="sourcePoint"/>
                        <mxPoint x="170" y="696" as="targetPoint"/>
                        <Array as="points"/>
                    </mxGeometry>
                </mxCell>
                <mxCell id="710" value="" style="ellipse;whiteSpace=wrap;html=1;aspect=fixed;fillColor=#000000;fontFamily=Garamond;fontSize=36;strokeWidth=2;" parent="1" vertex="1">
                    <mxGeometry x="166" y="691" width="10" height="10" as="geometry"/>
                </mxCell>
                <mxCell id="712" value="" style="ellipse;whiteSpace=wrap;html=1;aspect=fixed;fillColor=#000000;fontFamily=Garamond;fontSize=36;strokeWidth=2;" parent="1" vertex="1">
                    <mxGeometry x="216" y="641" width="10" height="10" as="geometry"/>
                </mxCell>
                <mxCell id="713" value="" style="curved=1;endArrow=none;html=1;endFill=0;startArrow=none;fontFamily=Garamond;fontSize=36;strokeWidth=2;" parent="1" source="710" target="712" edge="1">
                    <mxGeometry width="50" height="50" relative="1" as="geometry">
                        <mxPoint x="210.0410887221626" y="559.0540172714745" as="sourcePoint"/>
                        <mxPoint x="789" y="573" as="targetPoint"/>
                        <Array as="points"/>
                    </mxGeometry>
                </mxCell>
                <mxCell id="714" value="" style="ellipse;whiteSpace=wrap;html=1;aspect=fixed;fillColor=#000000;fontFamily=Garamond;fontSize=36;strokeWidth=2;" parent="1" vertex="1">
                    <mxGeometry x="276" y="611" width="10" height="10" as="geometry"/>
                </mxCell>
                <mxCell id="715" value="" style="curved=1;endArrow=none;html=1;endFill=0;startArrow=none;fontFamily=Garamond;fontSize=36;strokeWidth=2;" parent="1" source="712" target="714" edge="1">
                    <mxGeometry width="50" height="50" relative="1" as="geometry">
                        <mxPoint x="268.0686673560158" y="523.0938090314173" as="sourcePoint"/>
                        <mxPoint x="789" y="573" as="targetPoint"/>
                        <Array as="points"/>
                    </mxGeometry>
                </mxCell>
                <mxCell id="716" value="" style="ellipse;whiteSpace=wrap;html=1;aspect=fixed;fillColor=#000000;fontFamily=Garamond;fontSize=36;strokeWidth=2;" parent="1" vertex="1">
                    <mxGeometry x="336" y="611" width="10" height="10" as="geometry"/>
                </mxCell>
                <mxCell id="717" value="" style="curved=1;endArrow=none;html=1;endFill=0;startArrow=none;fontFamily=Garamond;fontSize=36;strokeWidth=2;" parent="1" source="714" target="716" edge="1">
                    <mxGeometry width="50" height="50" relative="1" as="geometry">
                        <mxPoint x="293.29289321881356" y="570.9497474683048" as="sourcePoint"/>
                        <mxPoint x="789" y="573" as="targetPoint"/>
                        <Array as="points"/>
                    </mxGeometry>
                </mxCell>
                <mxCell id="718" value="" style="ellipse;whiteSpace=wrap;html=1;aspect=fixed;fillColor=#000000;fontFamily=Garamond;fontSize=36;strokeWidth=2;" parent="1" vertex="1">
                    <mxGeometry x="389" y="631" width="10" height="10" as="geometry"/>
                </mxCell>
                <mxCell id="719" value="" style="curved=1;endArrow=none;html=1;endFill=0;startArrow=none;fontFamily=Garamond;fontSize=36;strokeWidth=2;" parent="1" source="716" target="718" edge="1">
                    <mxGeometry width="50" height="50" relative="1" as="geometry">
                        <mxPoint x="348.8353726863088" y="617.2724664963971" as="sourcePoint"/>
                        <mxPoint x="789" y="573" as="targetPoint"/>
                        <Array as="points"/>
                    </mxGeometry>
                </mxCell>
                <mxCell id="720" value="" style="ellipse;whiteSpace=wrap;html=1;aspect=fixed;fillColor=#000000;fontFamily=Garamond;fontSize=36;strokeWidth=2;" parent="1" vertex="1">
                    <mxGeometry x="426" y="681" width="10" height="10" as="geometry"/>
                </mxCell>
                <mxCell id="721" value="" style="curved=1;endArrow=none;html=1;endFill=0;startArrow=none;fontFamily=Garamond;fontSize=36;strokeWidth=2;" parent="1" source="718" target="720" edge="1">
                    <mxGeometry width="50" height="50" relative="1" as="geometry">
                        <mxPoint x="408.9497474683519" y="636.707106781193" as="sourcePoint"/>
                        <mxPoint x="789" y="573" as="targetPoint"/>
                        <Array as="points"/>
                    </mxGeometry>
                </mxCell>
                <mxCell id="722" value="" style="ellipse;whiteSpace=wrap;html=1;aspect=fixed;fillColor=#000000;fontFamily=Garamond;fontSize=36;strokeWidth=2;" parent="1" vertex="1">
                    <mxGeometry x="474" y="631" width="10" height="10" as="geometry"/>
                </mxCell>
                <mxCell id="723" value="" style="curved=1;endArrow=none;html=1;endFill=0;startArrow=none;fontFamily=Garamond;fontSize=36;strokeWidth=2;" parent="1" source="720" target="722" edge="1">
                    <mxGeometry width="50" height="50" relative="1" as="geometry">
                        <mxPoint x="444.8495345825381" y="680.9273005787209" as="sourcePoint"/>
                        <mxPoint x="789" y="573" as="targetPoint"/>
                        <Array as="points"/>
                    </mxGeometry>
                </mxCell>
                <mxCell id="724" value="" style="ellipse;whiteSpace=wrap;html=1;aspect=fixed;fillColor=#000000;fontFamily=Garamond;fontSize=36;strokeWidth=2;" parent="1" vertex="1">
                    <mxGeometry x="484" y="571" width="10" height="10" as="geometry"/>
                </mxCell>
                <mxCell id="725" value="" style="curved=1;endArrow=none;html=1;endFill=0;startArrow=none;fontFamily=Garamond;fontSize=36;strokeWidth=2;" parent="1" source="722" target="724" edge="1">
                    <mxGeometry width="50" height="50" relative="1" as="geometry">
                        <mxPoint x="459.66081860045506" y="750.9561395034125" as="sourcePoint"/>
                        <mxPoint x="789" y="573" as="targetPoint"/>
                        <Array as="points"/>
                    </mxGeometry>
                </mxCell>
                <mxCell id="751" style="edgeStyle=orthogonalEdgeStyle;html=1;exitX=0.5;exitY=0;exitDx=0;exitDy=0;entryX=0;entryY=0.5;entryDx=0;entryDy=0;dashed=1;strokeWidth=3;startArrow=none;startFill=0;endArrow=classic;endFill=1;" parent="1" source="726" edge="1">
                    <mxGeometry relative="1" as="geometry">
                        <mxPoint x="300" y="349" as="targetPoint"/>
                        <Array as="points">
                            <mxPoint x="527" y="500"/>
                            <mxPoint x="130" y="500"/>
                            <mxPoint x="130" y="349"/>
                        </Array>
                    </mxGeometry>
                </mxCell>
                <mxCell id="726" value="" style="ellipse;whiteSpace=wrap;html=1;aspect=fixed;fillColor=#000000;fontFamily=Garamond;fontSize=36;strokeWidth=2;" parent="1" vertex="1">
                    <mxGeometry x="522.07" y="511" width="10" height="10" as="geometry"/>
                </mxCell>
                <mxCell id="727" value="" style="curved=1;endArrow=none;html=1;endFill=0;startArrow=none;fontFamily=Garamond;fontSize=36;strokeWidth=2;exitX=1;exitY=0;exitDx=0;exitDy=0;" parent="1" source="724" target="726" edge="1">
                    <mxGeometry width="50" height="50" relative="1" as="geometry">
                        <mxPoint x="474" y="566" as="sourcePoint"/>
                        <mxPoint x="789" y="573" as="targetPoint"/>
                        <Array as="points"/>
                    </mxGeometry>
                </mxCell>
                <mxCell id="728" value="" style="curved=1;endArrow=none;html=1;endFill=0;startArrow=none;entryX=0;entryY=1;entryDx=0;entryDy=0;fontFamily=Garamond;fontSize=36;strokeWidth=2;" parent="1" source="730" target="729" edge="1">
                    <mxGeometry width="50" height="50" relative="1" as="geometry">
                        <mxPoint x="677.8621274299253" y="529.1755269979385" as="sourcePoint"/>
                        <mxPoint x="789" y="573" as="targetPoint"/>
                        <Array as="points"/>
                    </mxGeometry>
                </mxCell>
                <mxCell id="745" style="edgeStyle=orthogonalEdgeStyle;html=1;dashed=1;endArrow=classic;endFill=1;strokeWidth=3;entryX=-0.01;entryY=0.864;entryDx=0;entryDy=0;entryPerimeter=0;" parent="1" source="729" edge="1">
                    <mxGeometry relative="1" as="geometry">
                        <mxPoint x="298.4393" y="399.96000000000004" as="targetPoint"/>
                        <Array as="points">
                            <mxPoint x="631" y="440"/>
                            <mxPoint x="170" y="440"/>
                            <mxPoint x="170" y="400"/>
                        </Array>
                    </mxGeometry>
                </mxCell>
                <mxCell id="729" value="" style="ellipse;whiteSpace=wrap;html=1;aspect=fixed;fillColor=#000000;fontFamily=Garamond;fontSize=36;strokeWidth=2;" parent="1" vertex="1">
                    <mxGeometry x="626" y="551" width="10" height="10" as="geometry"/>
                </mxCell>
                <mxCell id="746" style="edgeStyle=orthogonalEdgeStyle;html=1;dashed=1;endArrow=classic;endFill=1;strokeWidth=3;startArrow=none;startFill=0;entryX=0.001;entryY=0.661;entryDx=0;entryDy=0;entryPerimeter=0;" parent="1" source="730" edge="1">
                    <mxGeometry relative="1" as="geometry">
                        <mxPoint x="300.15607" y="371.5400000000002" as="targetPoint"/>
                        <Array as="points">
                            <mxPoint x="591" y="470"/>
                            <mxPoint x="150" y="470"/>
                            <mxPoint x="150" y="372"/>
                        </Array>
                    </mxGeometry>
                </mxCell>
                <mxCell id="730" value="" style="ellipse;whiteSpace=wrap;html=1;aspect=fixed;fillColor=#000000;fontFamily=Garamond;fontSize=36;strokeWidth=2;" parent="1" vertex="1">
                    <mxGeometry x="586" y="591" width="10" height="10" as="geometry"/>
                </mxCell>
                <mxCell id="731" value="" style="curved=1;endArrow=none;html=1;endFill=0;startArrow=none;fontFamily=Garamond;fontSize=36;strokeWidth=2;entryX=0;entryY=0;entryDx=0;entryDy=0;" parent="1" target="730" edge="1">
                    <mxGeometry width="50" height="50" relative="1" as="geometry">
                        <mxPoint x="527" y="516" as="sourcePoint"/>
                        <mxPoint x="674" y="556" as="targetPoint"/>
                        <Array as="points"/>
                    </mxGeometry>
                </mxCell>
                <mxCell id="747" style="edgeStyle=orthogonalEdgeStyle;html=1;dashed=1;endArrow=none;endFill=0;startArrow=classic;startFill=1;strokeWidth=5;entryX=1;entryY=0.75;entryDx=0;entryDy=0;dashPattern=1 1;fillColor=#f8cecc;strokeColor=#b85450;exitX=0.9;exitY=0.132;exitDx=0;exitDy=0;exitPerimeter=0;" parent="1" source="732" edge="1">
                    <mxGeometry relative="1" as="geometry">
                        <mxPoint x="680.1399999999999" y="384" as="targetPoint"/>
                        <mxPoint x="696" y="659" as="sourcePoint"/>
                        <Array as="points">
                            <mxPoint x="697" y="490"/>
                            <mxPoint x="697" y="490"/>
                            <mxPoint x="697" y="384"/>
                        </Array>
                    </mxGeometry>
                </mxCell>
                <mxCell id="732" value="" style="shape=cross;whiteSpace=wrap;html=1;rotation=-45;fillColor=#FF0000;fontFamily=Garamond;fontSize=36;strokeWidth=2;" parent="1" vertex="1">
                    <mxGeometry x="686" y="531.24" width="19.93" height="19.76" as="geometry"/>
                </mxCell>
                <mxCell id="734" value="Value" style="text;align=center;verticalAlign=middle;rounded=0;fontFamily=Garamond;html=1;whiteSpace=wrap;fontSize=36;rotation=-90;strokeWidth=2;" parent="1" vertex="1">
                    <mxGeometry x="-30" y="501" width="156.07" height="97.12" as="geometry"/>
                </mxCell>
                <mxCell id="735" value="Time" style="text;align=center;verticalAlign=middle;rounded=0;fontFamily=Garamond;html=1;whiteSpace=wrap;fontSize=36;rotation=0;strokeWidth=2;" parent="1" vertex="1">
                    <mxGeometry x="352.9699999999999" y="691" width="156.07" height="97.12" as="geometry"/>
                </mxCell>
                <mxCell id="737" value="" style="shape=cross;whiteSpace=wrap;html=1;rotation=-45;fillColor=#FF0000;fontFamily=Garamond;fontSize=36;strokeWidth=2;" parent="1" vertex="1">
                    <mxGeometry x="746" y="564" width="19.93" height="19.76" as="geometry"/>
                </mxCell>
                <mxCell id="738" value="" style="shape=cross;whiteSpace=wrap;html=1;rotation=-45;fillColor=#FF0000;fontFamily=Garamond;fontSize=36;strokeWidth=2;" parent="1" vertex="1">
                    <mxGeometry x="786" y="601.24" width="19.93" height="19.76" as="geometry"/>
                </mxCell>
                <mxCell id="739" value="" style="curved=1;endArrow=none;html=1;endFill=0;startArrow=none;fontFamily=Garamond;fontSize=36;strokeWidth=2;dashed=1;exitX=0;exitY=0;exitDx=11.940999999999999;exitDy=3.9519999999999995;exitPerimeter=0;entryX=0.508;entryY=0.517;entryDx=0;entryDy=0;entryPerimeter=0;" parent="1" source="738" target="737" edge="1">
                    <mxGeometry width="50" height="50" relative="1" as="geometry">
                        <mxPoint x="763" y="661" as="sourcePoint"/>
                        <mxPoint x="756" y="571" as="targetPoint"/>
                        <Array as="points"/>
                    </mxGeometry>
                </mxCell>
                <mxCell id="748" style="edgeStyle=orthogonalEdgeStyle;html=1;dashed=1;endArrow=none;endFill=0;startArrow=classic;startFill=1;strokeWidth=5;entryX=1;entryY=0.25;entryDx=0;entryDy=0;dashPattern=1 1;fillColor=#dae8fc;strokeColor=#6c8ebf;" parent="1" edge="1">
                    <mxGeometry relative="1" as="geometry">
                        <mxPoint x="680.1399999999999" y="314" as="targetPoint"/>
                        <mxPoint x="796" y="600" as="sourcePoint"/>
                        <Array as="points">
                            <mxPoint x="796" y="314"/>
                        </Array>
                    </mxGeometry>
                </mxCell>
                <mxCell id="749" style="edgeStyle=orthogonalEdgeStyle;html=1;dashed=1;endArrow=none;endFill=0;startArrow=classic;startFill=1;strokeWidth=5;dashPattern=1 1;fillColor=#dae8fc;strokeColor=#6c8ebf;" parent="1" edge="1">
                    <mxGeometry relative="1" as="geometry">
                        <mxPoint x="680.14" y="352" as="targetPoint"/>
                        <mxPoint x="756" y="560" as="sourcePoint"/>
                        <Array as="points">
                            <mxPoint x="756" y="352"/>
                        </Array>
                    </mxGeometry>
                </mxCell>
                <mxCell id="752" style="edgeStyle=orthogonalEdgeStyle;html=1;exitX=0.5;exitY=0;exitDx=0;exitDy=0;entryX=-0.016;entryY=0.313;entryDx=0;entryDy=0;entryPerimeter=0;dashed=1;strokeWidth=3;startArrow=none;startFill=0;endArrow=classic;endFill=1;" parent="1" source="724" edge="1">
                    <mxGeometry relative="1" as="geometry">
                        <mxPoint x="522.0200000000002" y="615.87" as="sourcePoint"/>
                        <mxPoint x="297.50288" y="322.81999999999994" as="targetPoint"/>
                        <Array as="points">
                            <mxPoint x="489" y="520"/>
                            <mxPoint x="110" y="520"/>
                            <mxPoint x="110" y="323"/>
                        </Array>
                    </mxGeometry>
                </mxCell>
                <mxCell id="753" style="edgeStyle=orthogonalEdgeStyle;html=1;exitX=0;exitY=0;exitDx=0;exitDy=0;entryX=-0.002;entryY=0.133;entryDx=0;entryDy=0;dashed=1;strokeWidth=3;startArrow=none;startFill=0;endArrow=classic;endFill=1;entryPerimeter=0;" parent="1" source="722" target="695" edge="1">
                    <mxGeometry relative="1" as="geometry">
                        <mxPoint x="426" y="669.13" as="sourcePoint"/>
                        <mxPoint x="231.32571999999982" y="309.9999999999999" as="targetPoint"/>
                        <Array as="points">
                            <mxPoint x="470" y="633"/>
                            <mxPoint x="470" y="550"/>
                            <mxPoint x="90" y="550"/>
                            <mxPoint x="90" y="299"/>
                        </Array>
                    </mxGeometry>
                </mxCell>
                <mxCell id="754" value="Multi Time Horrizon" style="text;align=center;verticalAlign=middle;rounded=0;fontFamily=Garamond;html=1;whiteSpace=wrap;fontSize=36;rotation=0;strokeWidth=2;fillColor=#dae8fc;strokeColor=#6c8ebf;" parent="1" vertex="1">
                    <mxGeometry x="859.9999999999999" y="370" width="156.07" height="140" as="geometry"/>
                </mxCell>
                <mxCell id="755" value="Single Time Horrizon" style="text;align=center;verticalAlign=middle;rounded=0;fontFamily=Garamond;html=1;whiteSpace=wrap;fontSize=36;rotation=0;strokeWidth=2;fillColor=#f8cecc;strokeColor=#b85450;" vertex="1" parent="1">
                    <mxGeometry x="603.93" y="591" width="142.07" height="121" as="geometry"/>
                </mxCell>
                <mxCell id="756" style="edgeStyle=orthogonalEdgeStyle;html=1;dashed=1;endArrow=none;endFill=0;startArrow=classic;startFill=1;strokeWidth=5;dashPattern=1 1;fillColor=#dae8fc;strokeColor=#6c8ebf;exitX=0;exitY=0;exitDx=11.941;exitDy=11.856000000000002;exitPerimeter=0;" edge="1" parent="1" source="732">
                    <mxGeometry relative="1" as="geometry">
                        <mxPoint x="680" y="380" as="targetPoint"/>
                        <mxPoint x="766" y="570" as="sourcePoint"/>
                        <Array as="points">
                            <mxPoint x="700" y="541"/>
                            <mxPoint x="700" y="540"/>
                            <mxPoint x="730" y="540"/>
                            <mxPoint x="730" y="380"/>
                        </Array>
                    </mxGeometry>
                </mxCell>
            </root>
        </mxGraphModel>
    </diagram>
</mxfile>